<?xml version="1.0" encoding="UTF-8"?>
<svg width="48px" height="48px" viewBox="0 0 48 48" version="1.1" xmlns="http://www.w3.org/2000/svg" xmlns:xlink="http://www.w3.org/1999/xlink">
    <!-- Generator: sketchtool 59.1 (101010) - https://sketch.com -->
    <title>D6D75EE3-64FC-4348-B545-E032973A7444</title>
    <desc>Created with sketchtool.</desc>
    <defs>
        <path d="M42.0124376,5.98756238 C38.3622265,2.33735125 32.3028023,0.462495202 24,0.414587332 C15.6971977,0.462495202 9.63777351,2.33735125 5.98756238,5.98756238 C2.33735125,9.63777351 0.462495202,15.6971977 0.414587332,24 C0.462495202,32.3028023 2.33827255,38.3622265 5.98756238,42.0124376 C9.63685221,45.6626488 15.6971977,47.5375048 24,47.5854127 C32.3028023,47.5375048 38.3622265,45.6617274 42.0124376,42.0124376 C45.6626488,38.3631478 47.5375048,32.3028023 47.5854127,24 C47.5375048,15.6971977 45.6617274,9.63777351 42.0124376,5.98756238 Z" id="path-1"></path>
    </defs>
    <g id="To-do-Cham-SG" stroke="none" stroke-width="1" fill="none" fill-rule="evenodd">
        <g id="To-do-app---add-new" transform="translate(-389.000000, -15.000000)">
            <g id="Icons-/-01-Applications-/-Vision-squircle" transform="translate(389.000000, 15.000000)">
                <g id="vision_icon_512">
                    <mask id="mask-2" fill="white">
                        <use xlink:href="#path-1"></use>
                    </mask>
                    <g id="Path" fill-rule="nonzero"></g>
                    <g id="Group" opacity="0.5" mask="url(#mask-2)" fill="#FFFFFF" fill-rule="nonzero">
                        <g transform="translate(-24.000000, -24.000000)" id="Rectangle">
                            <polygon opacity="0.4" transform="translate(30.019877, 30.019808) rotate(-45.000000) translate(-30.019877, -30.019808) " points="-3.88415326 21.5438004 63.9239082 21.5438004 63.9239082 38.4958157 -3.88415326 38.4958157"></polygon>
                            <polygon opacity="0.3" transform="translate(42.007286, 42.006910) rotate(-45.000000) translate(-42.007286, -42.006910) " points="8.10325495 33.5309021 75.9113164 33.5309021 75.9113164 50.4829175 8.10325495 50.4829175"></polygon>
                            <polygon opacity="0.2" transform="translate(53.993391, 53.993090) rotate(-45.000000) translate(-53.993391, -53.993090) " points="20.0893602 45.5170825 87.8974217 45.5170825 87.8974217 62.4690979 20.0893602 62.4690979"></polygon>
                            <polygon opacity="0.1" transform="translate(65.979878, 65.980192) rotate(-45.000000) translate(-65.979878, -65.980192) " points="32.0758471 57.5041843 99.8839086 57.5041843 99.8839086 74.4561996 32.0758471 74.4561996"></polygon>
                        </g>
                    </g>
                    <g id="Connect_Box" mask="url(#mask-2)" fill-rule="nonzero">
                        <g transform="translate(12.000000, 13.000000)" id="Shape">
                            <path d="M16,16 L8,16 L8,8 L16,8 L16,16 Z M10.2857143,13.7142857 L13.7142857,13.7142857 L13.7142857,10.2857143 L10.2857143,10.2857143 L10.2857143,13.7142857 Z" fill="#32C5FF"></path>
                            <path d="M22.9090844,0 L14.7272662,0 L9.27272073,0 L1.09090909,0 C0.488452364,0 0,0.488458909 0,1.09090582 L0,9.27273055 L0,14.727276 L0,22.9090909 C0,23.5115411 0.488452364,24 1.09090909,24 L9.27272073,24 L14.7272662,24 L22.9090844,24 C23.5115411,24 24,23.5115411 24,22.9090909 L24,14.727276 L24,9.27273055 L24,1.09090582 C24,0.488457818 23.5115411,0 22.9090844,0 Z M15.8181818,21.8181818 L15.8181818,17.4545487 L13.6363636,17.4545487 L13.6363636,21.8181818 L10.3636364,21.8181818 L10.3636364,17.4545487 L8.18181164,17.4545487 L8.18181164,21.8181818 L2.18181164,21.8181818 L2.18181164,15.8181818 L6.545448,15.8181818 L6.545448,13.6363636 L2.18181164,13.6363636 L2.18181164,10.3636364 L6.545448,10.3636364 L6.545448,8.18181818 L2.18181164,8.18181818 L2.18181164,2.18181818 L8.18181164,2.18181818 L8.18181164,6.54545782 L10.3636364,6.54545782 L10.3636364,2.18181818 L13.6363636,2.18181818 L13.6363636,6.54545782 L15.8181818,6.54545782 L15.8181818,2.18181818 L21.8181818,2.18181818 L21.8181818,8.18181818 L17.4545389,8.18181818 L17.4545389,10.3636364 L21.8181818,10.3636364 L21.8181818,13.6363636 L17.4545389,13.6363636 L17.4545389,15.8181818 L21.8181818,15.8181818 L21.8181818,21.8181818 L15.8181818,21.8181818 Z" fill="#FFFFFF"></path>
                        </g>
                    </g>
                </g>
            </g>
        </g>
    </g>
</svg>